<svg width="677" height="677" viewBox="0 0 677 677" fill="none" xmlns="http://www.w3.org/2000/svg">
<path d="M338.5 0C525.448 0 677 151.552 677 338.5C677 525.448 525.448 677 338.5 677C151.552 677 0 525.448 0 338.5C0 151.552 151.552 0 338.5 0ZM344 354C288.5 354 231.5 393.5 231.5 460.5C231.5 527.5 274 575.3 344 576.5C414 577.7 450 528.5 450 499L421 488C397.5 561 268 554.503 268 466.5C268 364 382.5 379.5 412 412.5V432.5H444.5V359H412V375.5C412 375.5 399.5 354 344 354ZM231.5 112V174.5H262V145H371.5L226 290.5L242 319.5H442V245.5H408V285.5H285L436.5 134.5L426 112H231.5Z" fill="black"/>
</svg>
